HIERARCHY
ROOT SpineBase
{
  OFFSET 0.000000 0.000000 0.000000
  CHANNELS 6 Xposition Yposition Zposition Zrotation Xrotation Yrotation
  JOINT SpineMid
  {
    OFFSET -0.000000 26.491008 0.000000
    CHANNELS 3 Zrotation Xrotation Yrotation
    JOINT SpineShoulder
    {
      OFFSET 0.006440 19.848236 -0.720897
      CHANNELS 3 Zrotation Xrotation Yrotation
      JOINT Neck
      {
        OFFSET -0.013733 6.637137 -0.543723
        CHANNELS 3 Zrotation Xrotation Yrotation
        JOINT Head
        {
          OFFSET -4.432693 13.011756 1.885042
          CHANNELS 3 Zrotation Xrotation Yrotation
          End Site
          {
            OFFSET 0 0 0
          }
        }
      }
      JOINT ShoulderLeft
      {
        OFFSET -12.727634 -4.554226 11.724828
        CHANNELS 3 Zrotation Xrotation Yrotation
        JOINT ElbowLeft
        {
          OFFSET -0.484024 -21.825626 -3.143144
          CHANNELS 3 Zrotation Xrotation Yrotation
          JOINT WristLeft
          {
            OFFSET -9.526554 -12.615059 -17.882688
            CHANNELS 3 Zrotation Xrotation Yrotation
            JOINT HandLeft
            {
              OFFSET -0.484972 -0.867792 -6.371897
              CHANNELS 3 Zrotation Xrotation Yrotation
              JOINT HandTipLeft
              {
                OFFSET -3.199213 -1.541086 -7.804979
                CHANNELS 3 Zrotation Xrotation Yrotation
                End Site
                {
                  OFFSET 0 0 0
                }
              }
              JOINT ThumbLeft
              {
                OFFSET -0.045699 0.346408 -7.160678
                CHANNELS 3 Zrotation Xrotation Yrotation
                End Site
                {
                  OFFSET 0 0 0
                }
              }
            }
          }
        }
      }
      JOINT ShoulderRight
      {
        OFFSET 9.440567 -1.481843 -11.676628
        CHANNELS 3 Zrotation Xrotation Yrotation
        JOINT ElbowRight
        {
          OFFSET 2.983426 -17.327340 -7.283391
          CHANNELS 3 Zrotation Xrotation Yrotation
          JOINT WristRight
          {
            OFFSET -10.771893 -18.823502 -11.260846
            CHANNELS 3 Zrotation Xrotation Yrotation
            JOINT HandRight
            {
              OFFSET -0.638377 -2.913686 -3.223815
              CHANNELS 3 Zrotation Xrotation Yrotation
              JOINT HandTipRight
              {
                OFFSET -1.344160 -4.680093 -7.597501
                CHANNELS 3 Zrotation Xrotation Yrotation
                End Site
                {
                  OFFSET 0 0 0
                }
              }
              JOINT ThumbRight
              {
                OFFSET 2.142775 -3.239099 -1.520867
                CHANNELS 3 Zrotation Xrotation Yrotation
                End Site
                {
                  OFFSET 0 0 0
                }
              }
            }
          }
        }
      }
    }
  }
  JOINT HipLeft
  {
    OFFSET -5.713632 0.288611 2.303243
    CHANNELS 3 Zrotation Xrotation Yrotation
    JOINT KneeLeft
    {
      OFFSET -23.985162 1.265078 -26.231262
      CHANNELS 3 Zrotation Xrotation Yrotation
      JOINT AnkleLeft
      {
        OFFSET 0.162729 -35.609402 9.677790
        CHANNELS 3 Zrotation Xrotation Yrotation
        JOINT FootLeft
        {
          OFFSET -6.449846 -3.354750 -9.221922
          CHANNELS 3 Zrotation Xrotation Yrotation
          End Site
          {
            OFFSET 0 0 0
          }
        }
      }
    }
  }
  JOINT HipRight
  {
    OFFSET 5.498456 2.208912 -8.730413
    CHANNELS 3 Zrotation Xrotation Yrotation
    JOINT KneeRight
    {
      OFFSET -8.911382 0.135519 -32.785545
      CHANNELS 3 Zrotation Xrotation Yrotation
      JOINT AnkleRight
      {
        OFFSET 11.322270 -32.503821 -8.581157
        CHANNELS 3 Zrotation Xrotation Yrotation
        JOINT FootRight
        {
          OFFSET -4.714088 -4.003415 -9.539688
          CHANNELS 3 Zrotation Xrotation Yrotation
          End Site
          {
            OFFSET 0 0 0
          }
        }
      }
    }
  }
}
MOTION
Frames: 10
Frame Time: 0.033333
10.958477 45.272512 370.391162 0.000000 0.000000 44.540441 -0.000000 -0.000000 -44.540441 -0.000000 0.000000 0.000000 -0.000000 0.000000 0.000000 0.000000 0.000000 0.000000 -0.000000 0.000000 0.000000 -0.000000 0.000000 0.000000 -0.000000 0.000000 0.000000 -0.000000 0.000000 0.000000 0.000000 0.000000 0.000000 0.000000 0.000000 0.000000 -0.000000 0.000000 0.000000 -0.000000 0.000000 0.000000 -0.000000 0.000000 0.000000 -0.000000 0.000000 0.000000 0.000000 0.000000 0.000000 0.000000 0.000000 0.000000 -0.000000 -0.000000 -44.540441 -0.000000 0.000000 0.000000 -0.000000 0.000000 0.000000 0.000000 0.000000 0.000000 -0.000000 -0.000000 -44.540441 -0.000000 0.000000 0.000000 -0.000000 0.000000 0.000000 0.000000 0.000000 0.000000
10.943940 45.266216 370.356798 0.007123 -0.016621 44.483682 0.006564 0.016849 -44.483682 -0.000000 0.000000 0.000000 -0.000000 0.000000 0.000000 0.000000 0.000000 0.000000 -0.000000 0.000000 0.000000 -0.261492 1.390199 -0.663475 -0.180435 -1.569653 4.165934 0.814543 0.907056 -6.544372 0.000000 0.000000 0.000000 0.000000 0.000000 0.000000 -0.000000 0.000000 0.000000 -0.000000 0.000000 0.000000 -0.000000 0.000000 0.000000 -0.000000 0.000000 0.000000 0.000000 0.000000 0.000000 0.000000 0.000000 0.000000 0.095320 1.397468 -42.808961 1.919029 0.398045 -1.381105 -2.032503 1.106437 -2.284592 0.000000 0.000000 0.000000 0.006564 0.016849 -44.483682 -0.000000 0.000000 0.000000 -1.694313 1.558456 2.119622 0.000000 0.000000 0.000000
10.930871 45.262794 370.328937 0.004981 -0.030146 44.430429 0.017547 0.025014 -44.430431 -0.000000 0.000000 0.000000 -0.000000 0.000000 0.000000 0.000000 0.000000 0.000000 0.450416 0.824435 -0.086308 -0.881640 1.698156 -1.172295 -0.234161 -3.126455 7.130172 1.586042 1.727399 -11.709318 0.000000 0.000000 0.000000 0.000000 0.000000 0.000000 -0.000000 0.000000 0.000000 -0.000000 0.000000 0.000000 -0.000000 0.000000 0.000000 -0.284519 -0.738310 0.678704 0.000000 0.000000 0.000000 0.000000 0.000000 0.000000 0.140009 2.301501 -41.680405 3.195404 0.600695 -2.247589 -3.266267 1.773659 -3.722728 0.000000 0.000000 0.000000 0.017547 0.025014 -44.430431 -0.000000 0.000000 0.000000 -2.868916 2.593813 3.550460 0.000000 0.000000 0.000000
10.919271 45.262247 370.307579 -0.006422 -0.040579 44.380745 0.032972 0.024511 -44.380754 -0.000000 0.000000 0.000000 -0.000000 0.000000 0.000000 0.000000 0.000000 0.000000 0.462431 1.198458 -0.097873 -0.971735 2.185408 -1.667499 -0.202791 -4.620963 9.189136 2.268502 2.425754 -15.676759 0.000000 0.000000 0.000000 0.000000 0.000000 0.000000 -0.000000 0.000000 0.000000 -0.000000 0.000000 0.000000 -0.000000 0.000000 0.000000 -0.208552 -1.281161 0.716826 0.000000 0.000000 0.000000 0.000000 0.000000 0.000000 0.163250 2.707220 -41.157902 3.801277 0.674322 -2.614602 -3.861743 2.184459 -4.460896 0.000000 0.000000 0.000000 0.032972 0.024511 -44.380754 -0.000000 0.000000 0.000000 -3.549083 3.199485 4.340953 0.000000 0.000000 0.000000
10.909138 45.264573 370.292723 -0.027082 -0.047921 44.334675 0.052861 0.015350 -44.334693 -0.000000 0.000000 0.000000 -0.000000 0.000000 0.000000 0.000000 0.000000 0.000000 0.338913 1.551886 -0.087651 -0.839251 2.411665 -2.093835 -0.113979 -6.044762 10.511355 2.820012 3.004100 -18.513053 0.000000 0.000000 0.000000 0.000000 0.000000 0.000000 -0.000000 0.000000 0.000000 -0.000000 0.000000 0.000000 -0.000000 0.000000 0.000000 0.006657 -1.948736 0.564648 0.000000 0.000000 0.000000 0.000000 0.000000 0.000000 0.178889 2.614442 -41.241306 3.727449 0.648359 -2.492147 -3.890790 2.428281 -4.569097 0.000000 0.000000 0.000000 0.052861 0.015350 -44.334693 -0.000000 0.000000 0.000000 -3.753157 3.428477 4.521160 0.000000 0.000000 0.000000
10.900473 45.269773 370.284371 -0.056999 -0.052175 44.292243 0.077234 -0.002457 -44.292268 -0.000000 0.000000 0.000000 -0.000000 0.000000 0.000000 0.000000 0.000000 0.000000 0.082161 1.887613 -0.054921 -0.491034 2.368622 -2.446293 0.016242 -7.421781 11.180707 3.210968 3.499228 -20.219345 0.000000 0.000000 0.000000 0.000000 0.000000 0.000000 -0.000000 0.000000 0.000000 -0.000000 0.000000 0.000000 0.503109 1.443473 -0.867997 -0.078210 -4.199888 1.088989 0.000000 0.000000 0.000000 0.000000 0.000000 0.000000 0.185189 2.024769 -41.928684 2.978079 0.515720 -1.880494 -3.363697 2.522579 -4.063363 0.000000 0.000000 0.000000 0.077234 -0.002457 -44.292268 -0.000000 0.000000 0.000000 -3.487283 3.297394 4.098971 0.000000 0.000000 0.000000
10.897856 45.268275 370.271287 -0.047660 -0.057398 44.409143 0.074212 0.007652 -44.409171 -0.000000 0.000000 0.000000 -0.000000 0.000000 0.000000 0.000000 0.000000 0.000000 -0.129824 2.032570 -0.024020 -0.564903 2.488108 -2.261798 0.526077 -8.571453 10.400727 2.988207 3.429204 -18.112307 0.000000 0.000000 0.000000 0.000000 0.000000 0.000000 -0.000000 0.000000 0.000000 -0.000000 0.000000 0.000000 1.471118 4.721063 -2.611167 0.200090 -9.643999 2.057428 0.000000 0.000000 0.000000 0.000000 0.000000 0.000000 0.143600 1.133779 -43.220670 2.085055 -0.051692 -0.802019 -2.885917 3.381399 -3.718828 0.000000 0.000000 0.000000 0.074212 0.007652 -44.409171 -0.000000 0.000000 0.000000 -2.861828 2.894955 3.196211 0.000000 0.000000 0.000000
10.882568 45.271430 370.282106 -0.021816 -0.051108 44.932603 0.051540 0.020773 -44.932622 -0.000000 0.000000 0.000000 -1.062389 -0.193098 0.086637 0.000000 0.000000 0.000000 -0.210022 2.444732 -0.019437 -0.473115 0.915548 -1.481721 0.682310 -9.100841 9.399139 3.154931 4.559593 -18.624150 0.000000 0.000000 0.000000 0.000000 0.000000 0.000000 -0.436234 -1.121901 -0.014146 0.436040 1.121976 0.005606 2.390065 5.864775 -3.851166 0.539373 -10.176867 1.423587 0.000000 0.000000 0.000000 0.000000 0.000000 0.000000 0.009282 -0.998538 -44.885001 -0.689411 0.752012 -0.043457 -0.000000 0.000000 0.000000 0.000000 0.000000 0.000000 0.051540 0.020773 -44.932622 -0.000000 0.000000 0.000000 -0.504091 1.621970 -0.675400 0.000000 0.000000 0.000000
10.934643 45.257599 370.328755 -0.024549 -0.077214 45.368525 0.072195 0.036776 -45.368565 -0.000000 0.000000 0.000000 -2.076669 -0.520654 0.114861 0.000000 0.000000 0.000000 -0.946757 2.479816 0.101501 1.157393 0.046211 -2.200687 0.295398 -10.346688 9.289304 3.391108 5.128654 -18.700800 0.000000 0.000000 0.000000 0.000000 0.000000 0.000000 -0.922099 -1.085653 0.192970 0.925915 1.082400 -0.210453 6.832309 2.076793 -8.077704 -2.369869 -7.910261 3.889854 0.000000 0.000000 0.000000 0.000000 0.000000 0.000000 -0.243057 -3.636108 -47.249013 -3.960579 0.483544 1.541611 3.008134 -1.489175 3.922353 0.000000 0.000000 0.000000 0.522081 0.812867 -45.109140 0.232309 -0.866451 -0.261004 0.485958 0.869293 -2.156827 0.000000 0.000000 0.000000
10.947891 45.296506 370.342930 -0.238187 -0.033269 44.470828 0.193278 -0.143120 -44.470656 -0.000000 0.000000 0.000000 -3.399374 -1.170725 0.059728 0.000000 0.000000 0.000000 -2.451228 3.738231 0.348329 3.769280 -2.057223 -3.247554 0.330338 -14.332423 7.998758 3.396180 8.631972 -18.098820 0.000000 0.000000 0.000000 0.000000 0.000000 0.000000 -2.033125 -0.605883 0.743536 1.019222 -0.375311 0.394688 5.757758 0.565472 -6.467680 -1.875741 -4.677625 2.564620 0.000000 0.000000 0.000000 0.000000 0.000000 0.000000 -0.514317 -6.397885 -49.847883 -7.667097 -0.559031 4.578582 6.584122 -1.253033 6.040858 0.000000 0.000000 0.000000 0.593558 0.572429 -44.280141 0.213000 -0.791747 -0.190543 1.727128 -1.217518 -2.783151 0.000000 0.000000 0.000000
